# xmcd
#
# Track frame offsets: 
#        150
#        17580
#        35343
#        58757
#        77698
#        95788
#        119045
#        138738
#        160733
#        178480
#        196963
#        219148
#
# Disc length: 3203 seconds
#
# Revision: 0
# Processed by: cddbd v1.5.2PL0 Copyright (c) Steve Scherf et al.
# Submitted via: ExactAudioCopy v1.0b3
#
DISCID=ab0c810c
DTITLE=宮野真守 - PASSAGE
DYEAR=1900
DGENRE=Anime
TTITLE0=UNSTOPPABLE 
TTITLE1=ULTRA FLY
TTITLE2=Identity
TTITLE3=THANK YOU (reprise)
TTITLE4=愛の詩～Ulyssesの宴～
TTITLE5=GOLDEN NIGHT -futuremix-
TTITLE6=カノン
TTITLE7=辻の華
TTITLE8=スーパーノヴァ
TTITLE9=Calling
TTITLE10=passage,
TTITLE11=未来
EXTD=
EXTT0=
EXTT1=
EXTT2=
EXTT3=
EXTT4=
EXTT5=
EXTT6=
EXTT7=
EXTT8=
EXTT9=
EXTT10=
EXTT11=
PLAYORDER=
